:SAMPLES-PER-SECOND 30
:FULLY-SPECIFIED
:DEGREES
32
root  81.8561 39.6348 -0.235642 171.731 -81.5763 -175.689
RightUpLeg  -17.268 -13.2962 -1.71089
RightLeg  22.8058 -2.63449 -1.48501
RightFoot  1.40684 -0.640722 5.81896
RightToes  0.00048216 0.542163 -0.142577
Spine  11.6156 -0.457566 -1.61404
Spine1  7.04484 -0.99084 0.679499
HEad  13.5022 7.21487 -1.89967
LeftShoulder1  7.48348 -10.4437 -46.8031
LeftArm  -12.7135 -0.123623 -30.7724
LeftForeArm  25.6216 -3.93418 -4.62635
LeftHand  -0.25398 0.0180481 5.50724
RightShoulder  5.46687 8.67862 38.8023
RightArm  -12.8251 -15.4343 36.7452
RightForeArm  15.5393 11.4785 4.94911
RightHand  -0.772036 1.49249 -13.1703
LeftUpLeg  4.34334 8.46655 2.3795
LeftLeg  12.614 19.3893 -1.21287
LeftFoot  -14.7683 0.0467934 -1.39211
LeftToes  1.06246e-005 4.65856e-005 -8.18505e-006
33
root  81.3419 39.6205 -0.273955 171.788 -81.3187 -175.201
RightUpLeg  -17.0354 -15.8853 -0.313662
RightLeg  16.4333 -2.7362 -0.853985
RightFoot  1.79607 -0.61214 5.41707
RightToes  0.00048216 0.542163 -0.142577
Spine  10.6336 -0.771832 -2.0158
Spine1  8.91224 -1.5531 1.51974
HEad  12.2071 8.07339 -2.78351
LeftShoulder1  7.44345 -10.4374 -46.5598
LeftArm  -10.4442 -2.41163 -35.1577
LeftForeArm  32.1783 -5.76463 -5.37045
LeftHand  -0.25398 0.0180481 5.50724
RightShoulder  5.43632 8.69663 38.493
RightArm  -12.4588 -16.4763 40.5727
RightForeArm  18.0666 10.9368 5.08363
RightHand  -0.624925 1.19462 -11.1089
LeftUpLeg  4.99335 8.15339 2.4462
LeftLeg  11.7787 19.8912 -1.53926
LeftFoot  -15.1053 0.0323393 -1.77344
LeftToes  1.06246e-005 4.65856e-005 -8.18505e-006
34
root  80.7359 39.5473 -0.328509 173.021 -80.5512 -176.12
RightUpLeg  -16.463 -15.3293 -0.0991509
RightLeg  11.9338 -3.93974 0.68941
RightFoot  1.61459 -0.720441 6.43363
RightToes  0.00048216 0.542163 -0.142577
Spine  10.6851 -0.724556 -2.31608
Spine1  9.02194 -1.71452 2.27239
HEad  11.7036 8.58987 -3.86687
LeftShoulder1  7.64619 -10.672 -47.0529
LeftArm  -7.91014 -3.55562 -38.1374
LeftForeArm  36.7738 -8.14557 -6.11994
LeftHand  -0.25398 0.0180481 5.50724
RightShoulder  5.53344 8.79995 38.8918
RightArm  -9.72175 -18.2535 41.3558
RightForeArm  19.9572 11.7977 5.48204
RightHand  -0.380576 0.692326 -7.33222
LeftUpLeg  6.00297 7.93286 2.35338
LeftLeg  11.1775 20.9863 -1.78194
LeftFoot  -15.6462 0.0297399 -1.71355
LeftToes  1.06246e-005 4.65856e-005 -8.18505e-006
35
root  80.0549 39.4499 -0.387344 174.615 -79.6957 -177.587
RightUpLeg  -15.8356 -13.0417 -0.410874
RightLeg  9.80174 -5.57568 1.92103
RightFoot  1.61746 -0.72934 6.51583
RightToes  0.00048216 0.542163 -0.142577
Spine  10.8366 -0.715056 -2.41311
Spine1  9.03309 -1.85534 2.76416
HEad  11.4291 9.36321 -4.86115
LeftShoulder1  7.70665 -10.7596 -47.1336
LeftArm  -4.42651 -4.42414 -40.6895
LeftForeArm  37.8862 -10.6649 -6.55525
LeftHand  -0.25398 0.0180481 5.50724
RightShoulder  5.57577 8.85433 39.0291
RightArm  -6.16205 -19.4327 40.8954
RightForeArm  20.3886 12.8048 5.83995
RightHand  -0.230013 -0.21261 -5.20242
LeftUpLeg  7.30581 7.89865 2.19832
LeftLeg  10.7086 21.8011 -2.07791
LeftFoot  -16.3263 0.0243863 -1.67972
LeftToes  1.06246e-005 4.65856e-005 -8.18505e-006
36
root  79.3051 39.3821 -0.460766 175.268 -79.1421 -178.095
RightUpLeg  -15.5118 -11.9182 -0.0286219
RightLeg  9.71811 -5.863 2.13931
RightFoot  2.34669 -0.373092 3.27435
RightToes  0.00048216 0.542163 -0.142577
Spine  11.1986 -0.932835 -2.16529
Spine1  8.33455 -2.1923 3.22931
HEad  11.9622 10.3418 -5.52355
LeftShoulder1  7.90718 -11.0137 -47.5249
LeftArm  1.10013 -4.45345 -41.5944
LeftForeArm  36.5058 -13.9857 -6.30999
LeftHand  -0.25398 0.0180481 5.50724
RightShoulder  5.63414 8.90135 39.3156
RightArm  -3.05358 -19.9839 39.3143
RightForeArm  19.6289 12.9562 6.22067
RightHand  -0.244764 -1.12953 -6.47352
LeftUpLeg  8.81715 7.98266 2.27578
LeftLeg  9.98212 21.8352 -2.53056
LeftFoot  -16.9107 -0.0246638 -2.58627
LeftToes  1.06246e-005 4.65856e-005 -8.18505e-006
37
root  78.4822 39.3364 -0.554744 173.066 -78.9311 -175.589
RightUpLeg  -15.4787 -11.8662 1.12922
RightLeg  11.0071 -5.45483 1.7043
RightFoot  3.04013 0.190572 -1.36792
RightToes  0.00048216 0.542163 -0.142577
Spine  10.7273 -1.60291 -1.0338
Spine1  8.79542 -2.89481 3.45145
HEad  12.3076 11.3485 -6.14901
LeftShoulder1  7.91079 -11.046 -47.4389
LeftArm  6.41793 -4.52401 -42.0525
LeftForeArm  35.3704 -17.9502 -4.9453
LeftHand  -0.25398 0.0180481 5.50724
RightShoulder  5.51636 8.81529 38.7031
RightArm  -2.58051 -19.0191 38.5597
RightForeArm  20.166 11.7034 6.5526
RightHand  -0.313975 -1.35043 -8.79541
LeftUpLeg  10.262 8.21915 2.87843
LeftLeg  9.32279 21.4907 -2.62316
LeftFoot  -17.3855 -0.08735 -3.63539
LeftToes  1.06246e-005 4.65856e-005 -8.18505e-006
